Patient4_TMGait_0pt8_01_left_19_EMG.mot
version=1
nRows=33
nColumns=33
inDegrees=no
endheader
time	1LAddLong	2LGlutMax	3LGlutMed	4LIliopsoas	5LSemiMemb	6LBicFemLong	7LRecFem	8LVastMed	9LVastLat	10LGasMed	11LTibAnt	12lTibPost	13LPeroneusLong	14LSol	15LExtDigLong	16LFlexDigLong	17RAddLong	18RGlutMax	19RGlutMed	20RIliopsoas	21RSemiMemb	22RBicFemLong	23RRecFem	24RVastMed	25RVastLat	26RGasMed	27RTibAnt	28RTibPost	29RPeroneusLong	30RSol	31RExtDigLong	32RFlexDigLong
20.53	0.005035	-0.66834	-0.0383	0.027466	-0.007172	0.028229	0.024719	0.022278	-0.25681	0.061493	-0.13809	0.006561	0.12039	-0.1033	0.88379	-0.014038	0	0.84137	0.24338	0.016785	-0.060425	0.27008	0.22995	-0.23438	-0.22858	-0.016937	0.035095	-0.12421	0.57816	-0.030212	-0.003357	-0.006409
20.531	-0.007324	-0.47577	-0.036316	0.057526	-0.010223	0.013275	0.045776	0.020905	-0.25589	-0.003204	-0.10956	0.002136	0.12558	-0.054626	0.057678	-0.009613	-0.013733	0.85541	0.28778	-0.026703	-0.12054	0.21484	0.12283	-0.11047	-0.14191	-0.035248	-0.033875	0.14633	0.16556	-0.19714	-0.008392	-0.002899
20.532	-0.01236	-0.25848	-0.041199	0.038757	-0.006409	0.011902	0.067902	0.012054	-0.26779	-0.033569	0.15564	0.007935	0.092468	-0.022888	-0.3862	-0.015106	-0.025482	0.84274	0.21011	-0.011749	-0.081482	0.12985	0.052032	-0.078125	-0.016785	-0.037689	-0.019684	0.1178	-0.066071	-0.08667	-0.004272	-0.007324
20.533	-0.002136	-0.095825	-0.020294	0.010223	-0.007019	0.017548	0.070953	0.020294	-0.26215	-0.053101	0.063324	0.010071	0.053864	0.005646	-0.5011	-0.014038	-0.007935	0.80063	-0.092316	0.077667	-0.037231	0.028687	-0.034332	-0.001984	0.072021	-0.036316	0.073395	0.009613	-0.50842	0.62637	-0.004578	-0.006561
20.534	-0.007782	0.07431	-0.020599	0.001984	-0.005493	0.016022	0.052795	0.023804	-0.27268	-0.006409	0.009766	0.006561	-0.001221	-0.020447	-0.20462	-0.014954	0.006866	0.74265	-0.10086	0.054474	-0.028839	0.045471	-0.036316	0.056915	0.14252	-0.030365	0.15381	-0.031891	0.65735	0.57419	-0.006104	-0.011597
20.535	0.005035	0.20554	-0.028992	-0.002136	-0.004883	0.013733	0.028687	0.016632	-0.28732	0.006714	-0.058899	0.005951	0.027313	-0.045319	-0.13153	-0.008392	0.00885	0.69168	-0.23346	0.038452	-0.062256	0.17807	-0.076294	-0.004578	0.18509	-0.021515	0.063019	-0.014038	1.2383	-0.014038	-0.003052	-0.008698
20.536	-0.005951	0.30838	-0.020294	-0.007324	-0.011597	0.017242	0.004425	0.016937	-0.28625	0.002594	-0.016327	0.007629	0.026855	-0.080566	-0.11902	-0.011902	0.031128	0.71762	-0.27237	-0.012207	-0.093231	0.040894	-0.37216	-0.13229	0.20538	-0.003662	-0.079651	0.011444	-1.1919	-0.32333	-0.009155	-0.009918
20.537	0.00351	0.3923	-0.002441	-0.019836	-0.01236	0.028381	0.01358	0.015869	-0.31677	0.002899	0.041962	0.011444	-0.007019	-0.087738	-0.08194	-0.017853	0.046082	0.72006	-0.09903	-0.093079	-0.045166	0.007477	-0.33646	-0.096741	0.17044	-0.002289	-0.10956	-0.008087	-1.7505	-0.33127	-0.008087	0.005341
20.538	0.006866	0.51834	0.005646	-0.01297	-0.005188	-0.00061	-0.001221	0.00824	-0.32257	-0.039825	0.12375	0.006561	-0.013733	-0.066833	-0.072327	-0.010223	0.058289	0.71625	-0.39536	-0.12802	-0.032806	0.041809	-0.24948	-0.091858	0.15152	-0.007477	-0.041046	-0.029602	0.27008	-0.045013	-0.005798	0.002899
20.539	0.005646	0.58563	-0.002136	-0.00473	-0.005798	-0.015564	0.034332	0.00946	-0.33005	-0.028229	0.020905	0.006104	-0.020599	-0.042419	0.29083	-0.011902	0.027161	0.72006	-0.031891	-0.1831	-0.05188	0.1326	-0.11597	-0.087128	0.14664	-0.010223	-0.10391	-0.027161	0.44617	0.20905	-0.006104	0.002899
20.54	0.008545	0.69565	0.005493	0.012665	-0.005493	-0.022125	0.02533	0.019226	-0.34088	0.000916	-0.045929	0.003357	0.011139	-0.021515	0.54886	-0.009918	0.010376	0.64285	0.23438	-0.14618	-0.1535	0.088196	-0.075989	0.017395	0.14999	0.002289	-0.066528	-0.015564	-0.89325	0.28595	0.003815	-0.002289
20.541	0.00412	0.7695	0.024261	-0.005341	-0.003052	-0.009308	0.02655	0.012054	-0.35797	0.012817	-0.098724	0.006866	0.065765	-0.026398	-0.003052	-0.010223	-0.018005	0.60776	0.31052	-0.028381	-0.24139	-0.023804	0.043945	0.036011	0.078125	-0.006104	-0.003204	0	-0.88654	-0.040131	-0.010071	-0.001831
20.542	0.01358	0.83908	0.05188	0.007324	-0.003662	-0.012054	0.02121	0.011597	-0.37231	0.037231	-0.063934	-0.002747	0.075378	-0.10834	-0.009918	0.000763	-0.022888	0.61493	0.29358	0.21362	-0.075226	-0.17578	0.12451	-0.024567	-0.058899	0.013275	0.049744	-0.012512	0.27054	-0.34714	-0.004425	-0.003204
20.543	0.001678	0.89859	0.005341	0.018311	-0.002594	-0.026245	0.005646	0.009918	-0.39764	0.027313	-0.044556	-0.000916	0.07431	-0.043793	-0.001068	-0.008698	0.003967	0.59906	0.35019	0.2713	0.016479	-0.24063	0.19318	-0.098114	-0.090637	-0.011292	-0.029755	-0.015411	1.1458	-0.20172	-0.003662	-0.00351
20.544	0.011902	0.92468	-0.08255	0.002747	0.001678	-0.040131	-0.00061	0.005035	-0.41657	0.021515	-0.001068	-0.00824	0.024109	-0.003662	0.016937	0.010986	-0.00061	0.58731	0.29923	0.18417	0.027161	-0.16937	0.19318	-0.13641	-0.062408	-0.032501	-0.045166	-0.012054	0.16647	-0.045624	-0.005798	0.000763
20.545	0.007629	0.97595	-0.064392	0.002594	0.005493	-0.030823	-0.042267	0.011444	-0.46982	0.012512	0.020294	-0.005798	-0.003967	-0.044403	-0.030212	0.001373	-0.009918	0.5925	0.6218	0.11444	-0.002747	0.043488	0.038147	-0.083771	-0.043488	-0.016327	-0.018921	-0.003204	-0.11887	0.15213	-0.008087	0.003052
20.546	0.006104	1.0077	-0.045776	-0.001526	0.005798	-0.019073	-0.035553	0.003815	-0.51071	-0.023804	-0.032501	-0.011139	0.032501	-0.10498	-0.085754	-0.014343	-0.014038	0.6131	0.64301	0.052795	0.028076	0.13855	-0.23331	-0.094299	-0.021515	-0.017853	-0.045471	-0.005646	-0.36362	-0.049591	-0.006866	0.001373
20.547	0.000458	0.95566	0.009308	-0.024872	0.009308	-0.03067	-0.029297	0.00885	-0.5275	-0.056458	-0.051117	-0.010834	0.041962	-0.088348	0.036316	0.006104	-0.007172	0.6131	0.87296	-0.024109	-0.019836	0.088959	-0.52063	-0.16403	0.006256	-0.019531	-0.012207	-0.009613	-0.32516	-0.16541	-0.005798	-0.002441
20.548	0.002441	0.91949	-0.040741	0.002441	0.001526	-0.043182	-0.04715	0.010376	-0.54016	-0.012512	-0.012512	-0.006561	0.027618	-0.036316	0.17914	0.006256	-0.016174	0.62592	0.5928	-0.005951	-0.075684	0.074921	-0.43533	0.054321	0.095367	-0.022888	0.32867	-0.000153	0.73074	0.52719	-0.008087	-0.005188
20.549	0.003052	0.8606	-0.011444	-0.003357	-0.00351	-0.066223	-0.066223	0.01297	-0.53925	-0.0383	0.023804	-0.013123	0.011139	-0.03479	0.20889	0.010834	0.00061	0.52414	0.72494	0.018463	-0.080566	0.035858	-0.087128	0.04425	-0.047455	-0.014496	0.31235	-0.013885	0.003967	0.56397	-0.007629	-0.008545
20.55	0.00885	0.8432	-0.008087	0.001984	0.003204	-0.052948	-0.048523	0.010071	-0.52139	-0.018616	0.045471	-0.006104	0.012207	-0.042114	0.15427	0.002136	0.04303	0.46432	-0.13901	0.098267	-0.13107	-0.10635	0.059509	-0.10208	-0.1297	0.000153	0.26703	-0.00885	-1.7941	0.25909	-0.00824	-0.002136
20.551	0.001831	0.88318	-0.025024	-0.008087	0.006714	-0.065765	-0.044403	0.009766	-0.47318	-0.02533	0.050201	-0.010223	0.050507	-0.025177	0.11078	0.026245	0.035095	0.38711	-0.73807	0.054626	-0.06958	-0.26459	-0.04364	-0.12802	-0.15549	0.009308	-0.19318	-0.000305	-1.0022	0.070953	-0.008698	0.002136
20.552	0.009766	0.90241	-0.018005	-0.004272	0.010529	-0.074463	-0.015106	0.007172	-0.33417	-0.0177	0.11429	-0.009003	0.048676	-0.080261	0.15579	0.007019	0.03891	0.36453	-0.037689	-0.007629	0.068665	-0.13351	-0.1329	-0.082397	-0.062256	0.005341	-0.78537	0.00061	1.3786	-0.16373	-0.00885	-0.002747
20.553	0.008698	0.93185	-0.027618	0.019836	-0.003815	-0.074158	0.002136	0.00824	-0.25711	-0.037231	0.081635	-0.009003	0.048676	-0.089417	0.025635	0.00946	0.042877	0.38849	-0.22964	-0.028534	0.13962	0.026398	-0.24368	0.011292	0.007172	-0.00824	-0.48706	-0.010071	1.2502	-0.041809	-0.006104	-0.010681
20.554	0.008087	0.89996	-0.019836	0.01297	0.00885	-0.06012	-0.007324	0.00473	-0.17944	-0.094147	-0.033264	-0.011902	0.13001	-0.1062	-0.070801	0.010834	0.005188	0.37857	-0.64438	0.025177	-0.19363	0.2771	-0.24551	0.025635	0.095062	-0.014038	0.029297	0.002136	-0.72571	0.093231	-0.008545	-0.005035
20.555	0.007935	0.90179	-0.039215	0.021057	0.009613	-0.059357	-0.014191	0.004425	-0.11063	-0.077515	-0.018616	-0.001831	0.15579	-0.05661	-0.038757	0.016174	-0.027161	0.44388	-0.50095	0.019379	-0.168	0.42328	-0.099335	0.10941	0.20554	0.002289	-0.28702	-0.001984	-0.39368	-0.11658	-0.007935	-0.006256
20.556	0.007019	0.91309	-0.01358	0.019989	0.012054	-0.059814	-0.044403	0.008087	-0.050354	-0.063324	0.00824	-0.006409	0.014343	-0.055542	0.037384	0.012817	-0.032043	0.47882	-0.35233	0.016785	0.080872	0.19333	-0.02594	0.14816	0.17273	0.000458	-0.58792	-0.001678	1.0777	-0.1622	-0.008087	-0.01358
20.557	0.007172	0.93811	-0.015411	0.016174	-0.002594	-0.074768	-0.036926	0.004883	0.003815	-0.045624	-0.010223	-0.010529	-0.066528	0.024261	-0.000763	0.007477	-0.016479	0.42145	-0.41061	-0.001678	0.027313	0.13382	0.048065	0.1294	0.029144	-0.011749	-0.089722	-0.003204	0.046539	0.18814	-0.005493	-0.014648
20.558	0.007019	0.94132	-0.017548	0.016632	-0.047913	-0.084686	-0.042572	-0.001221	0.049438	-0.067444	-0.006714	-0.019073	-0.096741	0.11353	-0.024414	0.016632	0.005188	0.39917	-0.27817	-0.053864	-0.053101	0.024414	0.15076	0.18677	-0.035706	-0.009308	0.19928	-0.010834	-0.90439	0.024414	-0.005493	-0.009613
20.559	0.011444	0.90302	-0.002899	0.00824	-0.029449	-0.12726	-0.046082	0.005798	0.089722	-0.13794	-0.033417	-0.006256	-0.052948	0.046082	-0.090027	0.028992	0.001221	0.39352	0.75226	-0.13275	0.35431	-0.26672	0.26901	0.11215	-0.063477	-0.012054	0.045471	-0.005035	-0.31418	-0.16815	-0.00946	-0.002441
20.56	0.009918	0.91019	0.003815	-0.000458	-0.015259	-0.11185	-0.036163	0.002747	0.13977	-0.17654	-0.041199	-0.007172	0.003357	-0.049744	-0.079498	0.011139	-0.005188	0.27344	1.21	-0.14923	0.37979	-0.24323	0.19959	0.041809	-0.18921	0.00061	0.097961	-0.010071	0.00885	-0.16403	-0.005035	-0.00061
20.561	0.012665	0.88669	-0.007477	-0.005646	0.031586	-0.093536	-0.043488	0.003662	0.17136	-0.11841	-0.013885	-0.012817	-0.03952	-0.0354	-0.023041	0.036316	-0.022278	0.23529	0.6311	-0.083923	0.11231	-0.1265	-0.014038	-0.000153	-0.11231	-0.010681	0.17166	0.001373	-0.16144	-0.11139	-0.006256	-0.012512
20.562	0.01236	0.85571	-0.010376	0.009918	0.050049	-0.075989	-0.046997	-0.001984	0.19623	-0.026703	0.005951	-0.011444	0.013885	0.053253	-0.003052	0.020599	-0.019684	0.15381	0.17273	-0.10681	-0.21881	0.007782	-0.009918	-0.070953	-0.11551	-0.023499	-0.13351	-0.010681	-0.42679	-0.085144	-0.007324	0.002441
